<?xml version="1.0" standalone="no"?>
<!DOCTYPE svg PUBLIC "-//W3C//DTD SVG 20010904//EN"
 "http://www.w3.org/TR/2001/REC-SVG-20010904/DTD/svg10.dtd">
<svg version="1.0" xmlns="http://www.w3.org/2000/svg"
 width="400.000000pt" height="400.000000pt" viewBox="0 0 400.000000 400.000000"
 preserveAspectRatio="xMidYMid meet">
<metadata>
Created by potrace 1.11, written by Peter Selinger 2001-2013
</metadata>
<g transform="translate(0.000000,400.000000) scale(0.100000,-0.100000)"
fill="#000000" stroke="none">
<path d="M1 3887 c1 -62 3 -104 6 -94 2 9 12 17 21 17 15 0 15 -2 2 -10 -13
-8 -12 -10 3 -10 9 0 17 -8 18 -17 0 -11 3 -13 6 -6 3 10 10 10 24 2 15 -7 18
-16 13 -32 l-6 -22 19 23 c21 23 43 29 43 11 0 -6 13 -9 29 -7 16 1 36 -4 46
-12 15 -13 19 -12 31 5 8 10 14 14 14 8 0 -16 32 -25 44 -13 12 12 39 14 32 1
-8 -12 19 -33 30 -24 5 4 3 1 -3 -7 -18 -20 -16 -30 7 -30 16 0 20 -7 20 -32
1 -28 8 -37 44 -60 48 -30 56 -33 56 -18 0 6 -10 11 -22 11 -20 1 -21 2 -4 6
12 3 25 -2 33 -13 16 -22 16 -17 2 24 -6 19 -16 29 -24 26 -16 -7 -25 48 -11
68 12 17 36 13 36 -5 0 -7 9 -18 20 -25 16 -10 20 -22 18 -52 -1 -22 -5 -40
-8 -40 -3 0 -6 -9 -6 -20 0 -11 4 -20 9 -20 4 0 5 -4 2 -10 -3 -5 -1 -10 4
-10 6 0 11 -8 11 -18 0 -10 11 -24 23 -31 20 -10 30 -10 61 3 21 9 35 20 32
24 -3 5 1 17 8 27 13 18 15 18 30 2 10 -9 23 -17 29 -16 9 0 8 2 0 6 -7 2 -13
13 -13 24 0 12 -5 16 -14 13 -8 -3 -17 -1 -21 5 -3 6 2 11 12 11 14 0 15 2 4
9 -21 13 -40 2 -34 -20 3 -11 0 -19 -7 -19 -6 0 -18 -7 -26 -15 -14 -13 -14
-15 1 -15 9 0 14 -4 10 -10 -3 -5 -13 -7 -23 -4 -14 5 -15 4 -2 -5 13 -9 12
-11 -4 -11 -15 0 -17 5 -12 26 6 23 4 26 -11 20 -17 -6 -17 -5 0 8 19 15 23
31 5 20 -9 -5 -9 -2 1 9 11 14 11 17 0 17 -11 0 -11 2 1 10 12 8 11 11 -8 16
-12 4 -29 19 -37 34 -13 25 -13 29 3 36 26 11 35 11 57 0 11 -6 23 -10 27 -11
3 0 10 -3 14 -7 4 -5 12 -8 17 -8 5 0 -1 8 -13 18 -30 25 -18 52 25 52 32 0
61 -20 48 -34 -4 -4 3 -9 15 -13 12 -3 22 -12 22 -19 0 -8 4 -14 10 -14 5 0
18 -10 30 -22 11 -12 20 -18 20 -13 0 5 6 2 13 -7 15 -20 64 -32 72 -18 4 6
11 8 16 4 5 -3 7 -9 4 -14 -3 -4 3 -6 13 -4 9 3 28 -5 42 -18 13 -13 27 -23
30 -22 12 1 60 -21 60 -29 0 -4 4 -6 8 -3 12 7 27 -6 48 -40 19 -30 23 -34 44
-34 6 0 10 -7 10 -15 0 -8 7 -15 15 -15 9 0 12 6 8 17 -4 10 -2 14 4 10 5 -3
10 0 10 8 0 8 -4 12 -9 9 -10 -6 -38 20 -38 36 0 6 4 9 9 6 5 -4 11 -1 13 5 7
21 37 -4 53 -44 13 -31 19 -37 25 -26 5 7 7 22 4 32 -8 25 18 22 43 -5 12 -13
23 -32 25 -43 2 -11 13 -24 26 -30 12 -5 22 -12 22 -16 0 -3 14 -4 30 -1 17 2
30 9 30 14 0 5 -9 7 -19 3 -14 -4 -23 0 -31 15 -6 12 -18 19 -25 16 -16 -6
-27 18 -19 39 5 12 10 13 20 4 8 -6 12 -14 10 -18 -3 -4 15 -18 40 -31 24 -14
44 -27 44 -30 0 -3 9 -6 21 -7 27 -2 71 -31 64 -42 -9 -16 29 -23 40 -7 12 16
62 16 73 0 4 -5 16 -10 26 -12 18 -3 18 -2 4 20 -15 22 -15 25 0 36 15 10 15
11 -4 11 -12 1 -25 -6 -28 -15 -9 -23 -19 -10 -20 25 -1 19 3 27 12 24 6 -3
12 -9 12 -15 0 -5 7 -2 16 6 16 17 44 22 44 8 0 -4 10 -8 23 -7 12 0 23 -4 25
-10 1 -5 -2 -10 -7 -10 -5 0 -13 -4 -18 -9 -4 -5 -3 -6 4 -2 6 3 14 2 18 -4 3
-5 11 -10 16 -10 6 0 7 5 3 12 -5 7 -3 8 5 4 7 -5 10 -14 7 -22 -6 -15 24 -7
36 10 5 8 8 7 8 -1 0 -6 14 -15 31 -18 21 -5 27 -10 19 -15 -8 -5 -2 -10 18
-15 18 -3 36 -4 41 -1 5 3 30 -15 57 -41 27 -25 43 -42 35 -38 -10 6 -12 2 -6
-14 4 -14 2 -21 -6 -21 -22 0 0 -13 27 -16 20 -2 23 0 14 11 -6 8 -7 16 -2 19
15 9 23 -37 9 -47 -8 -6 -6 -7 5 -3 10 3 20 1 23 -4 4 -6 18 -10 32 -10 16 0
27 -7 30 -19 3 -12 11 -17 19 -14 8 3 17 -2 20 -11 3 -8 21 -18 40 -22 19 -3
42 -16 52 -28 17 -22 23 -26 42 -26 6 0 10 -7 10 -15 0 -9 9 -15 21 -15 12 0
23 -8 26 -19 5 -18 57 -51 82 -51 6 0 11 -7 11 -16 0 -11 -6 -14 -21 -9 -15 5
-19 4 -15 -4 4 -6 14 -11 22 -11 8 0 13 -4 10 -8 -3 -5 1 -9 9 -9 8 0 13 3 11
6 -2 3 0 16 5 29 10 26 38 30 35 5 -2 -12 8 -22 27 -30 20 -9 27 -18 23 -28
-3 -10 -2 -13 5 -10 6 4 7 -3 3 -19 -4 -16 -2 -26 5 -26 6 0 11 -4 11 -10 0
-5 -9 -10 -20 -10 -11 0 -20 -5 -20 -10 0 -6 11 -8 24 -6 16 3 27 -1 30 -11 4
-9 14 -13 26 -10 19 5 37 -23 26 -41 -7 -13 28 -11 36 1 9 15 38 -11 38 -35 0
-10 -4 -16 -10 -13 -6 3 -7 -1 -4 -9 3 -9 11 -13 16 -10 6 4 8 1 6 -7 -3 -8
-10 -13 -16 -12 -5 1 -13 -4 -16 -13 -4 -10 -1 -13 7 -9 6 4 5 1 -4 -7 -9 -7
-14 -20 -11 -28 2 -8 -8 -3 -22 13 -27 27 -46 35 -46 18 0 -5 5 -11 11 -13 7
-2 13 -17 14 -33 1 -17 6 -42 10 -57 5 -21 4 -28 -8 -28 -14 0 -22 15 -48 92
-8 24 -20 38 -35 41 -20 3 -21 2 -11 -16 9 -15 9 -21 0 -24 -7 -3 -13 -13 -13
-23 0 -20 -33 -37 -38 -21 -5 16 -29 13 -29 -4 0 -8 4 -12 8 -10 4 3 9 -2 13
-10 3 -8 13 -15 23 -15 15 0 16 -2 3 -10 -12 -8 -13 -13 -2 -27 7 -10 15 -26
18 -35 3 -9 13 -19 23 -22 9 -2 0 -3 -19 -1 -55 4 -70 14 -70 45 0 34 -36 60
-83 60 -27 0 -36 -5 -41 -22 -7 -22 -7 -22 -16 -3 -4 11 -27 36 -49 55 -23 19
-41 40 -41 47 0 7 -4 13 -9 13 -5 0 -18 3 -28 6 -15 5 -15 4 -3 -5 13 -9 12
-11 -5 -11 -18 -1 -17 -2 4 -11 23 -9 24 -10 5 -24 -18 -14 -18 -14 8 -15 15
0 29 -3 32 -8 7 -12 -78 -1 -86 12 -6 8 -8 7 -8 -1 0 -20 -51 -15 -88 7 -34
21 -64 24 -97 10 -16 -7 -13 -8 15 -8 63 2 106 -23 63 -35 -10 -3 14 -3 52 -1
71 3 88 -1 93 -23 2 -15 -32 -17 -57 -4 -12 7 -31 5 -57 -4 -22 -7 -40 -9 -42
-4 -2 5 -8 9 -13 9 -6 0 -7 -5 -3 -12 4 -7 3 -8 -5 -4 -6 4 -9 12 -6 17 4 5
-4 13 -17 18 -13 6 -17 10 -10 10 6 1 12 6 12 11 0 6 -18 10 -41 10 -24 0 -38
4 -34 10 4 6 -8 10 -29 10 -19 0 -37 4 -40 9 -8 12 -55 20 -62 10 -3 -5 0 -9
6 -9 7 0 8 -6 0 -19 -6 -13 -23 -21 -47 -23 -52 -4 -55 -27 -4 -25 25 1 41 7
41 14 0 7 8 12 18 11 9 -1 26 0 37 1 17 1 18 3 5 11 -12 8 -12 10 5 10 11 0
26 -9 33 -20 8 -13 23 -20 45 -20 32 -1 70 -21 67 -36 -1 -5 4 -11 12 -14 18
-7 21 -50 3 -50 -7 0 -17 5 -20 10 -4 7 -14 5 -26 -4 -11 -7 -29 -12 -40 -9
-10 3 -19 1 -19 -5 0 -13 89 -20 94 -7 3 5 5 4 5 -2 1 -7 9 -13 19 -13 9 -1
28 -7 41 -14 l24 -13 -36 -14 c-36 -13 -47 -37 -14 -31 8 1 18 -2 21 -7 4 -5
-11 -7 -36 -4 -54 6 -51 6 -65 4 -7 0 -13 -11 -13 -22 0 -18 -5 -21 -30 -17
-16 3 -30 1 -30 -4 0 -8 -19 -5 -59 10 -10 4 -12 1 -6 -8 5 -9 4 -11 -3 -6 -7
4 -18 4 -24 -1 -7 -4 -18 -8 -25 -9 -7 -1 -40 -16 -75 -32 -79 -37 -142 -94
-133 -121 3 -11 0 -23 -6 -27 -8 -5 -10 -2 -6 8 3 9 3 19 0 22 -9 9 -44 -14
-38 -25 4 -5 2 -9 -3 -9 -13 0 -21 -35 -12 -49 9 -16 60 -3 60 14 0 7 7 15 15
19 8 3 14 11 13 18 -2 9 8 13 30 13 17 0 32 3 32 7 0 5 9 8 20 8 18 0 19 -3
10 -20 -6 -11 -17 -20 -25 -20 -8 0 -18 -6 -22 -14 -4 -7 -18 -18 -29 -24 -13
-7 -21 -20 -20 -34 1 -15 -6 -25 -19 -28 -13 -4 -20 -14 -20 -30 0 -15 -6 -25
-15 -25 -8 0 -16 -9 -16 -20 -1 -11 -2 -26 -3 -33 -1 -7 -5 -10 -11 -7 -9 6
-15 -51 -10 -98 1 -10 -4 -25 -11 -33 -7 -9 -9 -29 -5 -57 4 -23 8 -60 11 -82
7 -74 23 -160 34 -189 6 -16 9 -36 6 -45 -5 -18 8 -44 21 -41 5 1 10 -4 13
-11 2 -7 -1 -9 -9 -4 -11 7 1 -24 35 -86 13 -23 13 -28 1 -32 -8 -3 -21 4 -29
16 -8 12 -17 20 -21 16 -3 -3 12 -30 34 -60 22 -29 40 -59 40 -65 0 -6 9 -19
20 -29 11 -10 19 -25 18 -33 -2 -8 14 -25 37 -37 21 -12 41 -29 44 -36 3 -11
0 -11 -15 1 -19 14 -19 14 -1 -7 11 -12 25 -19 33 -16 9 3 14 -1 14 -12 0 -9
4 -14 9 -11 10 7 34 -18 25 -27 -3 -3 3 -12 15 -19 12 -7 21 -18 21 -24 0 -6
7 -17 15 -24 12 -10 15 -10 15 4 0 9 3 16 6 16 6 0 52 -35 87 -65 16 -14 21
-12 18 8 -2 15 17 6 80 -36 126 -85 399 -224 484 -248 17 -4 62 -19 100 -33
39 -14 79 -26 91 -26 11 0 25 -5 31 -11 14 -14 214 -20 233 -6 12 9 13 9 3 -3
-17 -18 -16 -30 1 -30 8 0 23 12 33 26 l19 26 36 -20 c27 -15 38 -18 47 -9 9
9 13 6 17 -10 4 -14 12 -19 23 -16 14 3 20 -3 24 -24 3 -15 8 -35 12 -44 4
-10 0 -19 -10 -23 -9 -3 -14 -2 -11 2 3 4 -5 14 -17 22 -20 12 -21 12 -8 -4
11 -13 12 -19 3 -25 -6 -3 -10 -20 -9 -36 2 -24 7 -30 27 -31 13 -1 26 -6 28
-12 2 -6 10 -8 18 -5 8 3 21 -1 30 -8 13 -10 17 -10 25 2 7 12 9 12 9 -1 0
-16 4 -17 78 -22 23 -1 42 -6 42 -9 0 -4 55 -17 123 -28 67 -12 141 -26 164
-31 23 -6 87 -10 142 -10 l101 0 0 1125 c0 1065 -1 1125 -17 1125 -10 0 -29 3
-43 5 -22 5 -22 4 -5 -4 14 -7 16 -10 5 -11 -8 -1 -25 -3 -37 -4 -19 -2 -21 0
-11 12 10 11 8 17 -7 29 -11 7 -28 12 -37 9 -10 -2 -21 0 -24 5 -3 6 -15 9
-27 7 -18 -3 -22 2 -22 27 0 29 -2 30 -52 33 -45 3 -53 6 -53 23 0 11 -4 18
-9 14 -6 -3 -15 4 -21 15 -6 11 -21 20 -33 20 -20 1 -20 2 -4 11 25 15 21 29
-9 29 -14 0 -23 4 -20 9 4 5 3 17 0 26 -5 11 -9 13 -14 5 -8 -14 -40 -2 -40
15 0 7 -6 16 -12 18 -10 4 -10 7 -1 14 8 6 -4 15 -37 28 -28 11 -53 27 -56 37
-3 9 -14 20 -25 23 -10 4 -20 11 -20 16 -1 5 -2 15 -3 22 -1 6 -9 11 -19 9
-10 -2 -17 4 -17 14 0 12 -6 15 -23 10 -27 -6 -50 23 -40 51 5 15 3 15 -11 -2
-9 -11 -16 -15 -15 -10 2 17 -13 55 -22 55 -5 0 -9 5 -9 11 0 5 5 7 10 4 16
-10 12 11 -5 25 -8 7 -15 18 -15 25 0 7 -7 18 -15 25 -8 7 -12 16 -9 21 3 5 0
9 -6 9 -6 0 -8 5 -5 10 3 6 -1 10 -9 10 -8 0 -18 10 -22 23 -4 12 -20 38 -35
58 -16 20 -29 41 -29 46 0 5 -10 20 -22 33 -13 14 -22 27 -21 31 1 3 -9 12
-22 19 -14 7 -25 20 -25 27 0 8 -4 12 -9 8 -5 -3 -12 3 -16 14 -3 10 -15 21
-25 24 -11 3 -20 12 -20 21 0 9 -4 16 -9 16 -5 0 -21 17 -37 37 -15 20 -22 33
-16 29 8 -5 10 -2 6 9 -4 10 -13 13 -26 9 -13 -4 -18 -2 -14 4 4 6 -2 8 -14 5
-12 -3 -20 -2 -19 3 4 23 -2 44 -13 44 -7 0 -22 8 -33 16 -20 16 -19 16 4 9
21 -6 22 -5 10 8 -8 8 -17 13 -22 10 -4 -2 -10 3 -13 12 -6 13 -8 14 -15 3 -7
-10 -9 -10 -9 2 0 13 -1 13 -11 0 -9 -12 -10 -11 -6 8 5 23 -8 31 -16 10 -4
-10 -6 -10 -6 0 -1 6 -7 12 -15 12 -8 0 -16 5 -18 11 -2 6 -12 -5 -23 -25 -11
-20 -23 -36 -26 -36 -9 0 -5 42 5 58 5 8 1 10 -10 5 -13 -5 -15 -3 -9 8 8 12
6 12 -8 0 -9 -7 -17 -10 -17 -5 0 5 -7 0 -15 -10 -8 -11 -15 -15 -15 -9 0 6 9
22 21 37 11 14 17 30 14 36 -11 18 -25 10 -25 -15 0 -14 -7 -28 -15 -32 -25
-9 -32 7 -11 23 24 17 18 24 -23 27 -18 1 -29 7 -27 13 3 7 -3 10 -12 7 -10
-2 -30 2 -46 11 -28 14 -28 14 -5 19 19 3 18 5 -8 6 -47 2 -63 11 -63 35 0 17
-2 18 -10 6 -8 -12 -10 -12 -11 5 l0 20 -9 -20 c-7 -18 -9 -17 -15 11 -7 30
-9 31 -52 28 -26 -2 -48 -6 -51 -8 -5 -5 -32 19 -32 28 0 3 5 6 11 6 14 0 40
26 32 33 -3 4 -15 0 -25 -8 -11 -7 -27 -11 -36 -8 -12 5 -14 0 -10 -25 2 -17
1 -29 -4 -26 -4 3 -8 18 -8 35 0 22 5 29 19 29 10 0 24 7 31 15 9 10 9 15 1
15 -6 0 -11 -4 -11 -10 0 -5 -9 -10 -20 -10 -13 0 -24 -10 -30 -25 -5 -14 -16
-25 -25 -25 -23 0 -18 -17 7 -23 12 -4 19 -9 16 -12 -3 -4 -27 1 -53 10 -26 8
-50 13 -53 10 -3 -3 0 -5 6 -5 7 0 12 -8 12 -17 0 -14 2 -15 9 -5 7 11 9 10
14 -3 4 -9 3 -13 -3 -10 -6 3 -10 1 -10 -5 0 -7 -7 -4 -16 5 -15 14 -17 14
-29 -1 -11 -15 -12 -15 -18 7 -8 32 -17 21 -10 -13 3 -16 12 -28 19 -28 8 0
14 -7 14 -15 0 -18 16 -20 23 -2 4 7 6 8 6 1 1 -6 -5 -17 -13 -23 -11 -10 -16
-8 -21 7 -4 14 -12 18 -25 15 -17 -5 -20 0 -21 28 l-1 34 -8 -30 -8 -30 -1 30
c-1 25 -3 27 -12 13 -11 -20 -39 -25 -39 -7 0 5 5 7 10 4 6 -3 10 -1 10 5 0
16 -73 8 -88 -10 -11 -13 -12 -12 -6 9 4 16 3 21 -5 17 -6 -4 -11 -2 -11 3 0
6 -9 2 -20 -9 -11 -11 -26 -20 -32 -19 -10 0 -10 2 0 6 10 4 10 8 1 19 -16 20
-30 7 -23 -22 4 -15 2 -24 -6 -24 -6 0 -8 5 -5 10 3 6 3 15 -1 22 -5 8 -11 6
-19 -6 -11 -14 -13 -15 -18 -1 -4 9 3 20 21 31 15 8 18 12 7 9 -24 -8 -85 -15
-67 -8 10 4 10 8 1 19 -9 11 -8 14 1 14 8 0 11 3 7 6 -12 13 -46 -7 -41 -24 5
-14 4 -15 -5 -2 -11 16 -15 48 -5 37 4 -3 13 0 20 8 21 21 17 27 -9 11 -20
-14 -50 -9 -48 8 1 3 -2 5 -6 4 -5 -2 -8 -11 -7 -20 0 -10 -5 -19 -12 -22 -7
-3 -10 2 -7 15 4 12 -1 21 -13 26 -47 16 -71 42 -68 70 2 16 1 21 -2 13 -4 -8
-13 -19 -20 -23 -11 -6 -10 -11 5 -26 10 -10 25 -21 32 -24 10 -4 8 -6 -4 -6
-10 -1 -28 10 -41 24 l-24 25 -6 -22 c-6 -23 -7 -23 -21 -4 -20 26 -19 45 1
20 8 -10 13 -14 10 -7 -4 6 -2 14 4 18 5 3 10 12 10 18 0 7 -4 6 -10 -3 -9
-13 -13 -12 -27 5 -13 16 -15 17 -10 3 4 -10 2 -18 -4 -18 -6 0 -9 -6 -6 -14
7 -18 -15 -27 -34 -15 -11 7 -11 9 4 9 9 0 17 3 17 8 0 15 -16 27 -35 26 -38
-3 -40 -4 -25 -15 12 -9 12 -10 -4 -5 -14 5 -17 2 -12 -10 5 -14 4 -15 -8 -5
-8 7 -20 10 -25 6 -7 -3 -8 0 -5 9 3 9 9 15 12 14 4 -1 17 3 29 10 12 6 29 9
37 6 9 -4 16 -1 16 6 0 7 7 10 15 6 8 -3 15 -1 15 4 0 14 -80 6 -90 -10 -5 -8
-12 -11 -16 -8 -3 4 1 14 10 23 19 19 21 29 5 19 -7 -4 -26 -8 -43 -10 -17 -1
-25 0 -18 3 6 2 10 9 6 14 -8 14 -24 11 -24 -4 0 -8 -7 -14 -15 -14 -17 0 -27
21 -18 43 5 13 7 13 14 2 7 -10 9 -9 9 3 0 21 -39 33 -46 14 -3 -7 -14 -11
-26 -7 -18 4 -20 2 -15 -19 l6 -24 -19 25 c-11 14 -20 32 -20 40 0 12 -3 11
-11 -3 -5 -9 -7 -22 -4 -27 3 -6 1 -10 -4 -10 -6 0 -11 5 -11 11 0 5 -5 7 -10
4 -6 -3 -11 4 -11 17 -1 17 -3 18 -6 5 -2 -9 -9 -15 -14 -11 -5 3 -7 8 -5 12
2 4 -7 8 -21 9 -14 0 -29 6 -32 12 -11 17 -296 10 -297 -6 -1 -7 -2 -16 -3
-20 0 -3 -10 4 -20 16 -16 18 -28 21 -80 19 -33 -2 -61 -6 -61 -10 0 -5 -3 -7
-7 -7 -22 4 -35 -2 -30 -14 3 -8 1 -20 -4 -28 -6 -10 -9 -6 -9 14 0 26 -2 27
-15 13 -18 -17 -45 -11 -45 11 0 8 -4 11 -10 8 -5 -3 -10 -2 -10 3 0 14 -55 9
-73 -6 -9 -8 -22 -10 -28 -6 -9 5 -8 9 6 14 10 3 -21 7 -69 8 l-86 1 1 -112z
m399 73 c0 -5 -4 -10 -10 -10 -5 0 -10 5 -10 10 0 6 5 10 10 10 6 0 10 -4 10
-10z m45 -30 c3 -6 -1 -7 -9 -4 -18 7 -21 14 -7 14 6 0 13 -4 16 -10z m506
-43 c-10 -9 -11 -8 -5 6 3 10 9 15 12 12 3 -3 0 -11 -7 -18z m-401 -51 c0 -3
-4 -8 -10 -11 -5 -3 -10 -1 -10 4 0 6 5 11 10 11 6 0 10 -2 10 -4z m-359 -42
c12 -33 9 -36 -15 -18 -11 8 -16 14 -11 14 5 0 0 7 -11 15 -18 14 -18 14 4 15
15 0 26 -8 33 -26z m1069 -8 c0 -3 -4 -8 -10 -11 -5 -3 -10 -1 -10 4 0 6 5 11
10 11 6 0 10 -2 10 -4z m-1015 -16 c3 -6 -1 -7 -9 -4 -18 7 -21 14 -7 14 6 0
13 -4 16 -10z m1862 -42 c-3 -8 -6 -5 -6 6 -1 11 2 17 5 13 3 -3 4 -12 1 -19z
m-17 -48 c0 -5 -5 -10 -11 -10 -5 0 -7 5 -4 10 3 6 8 10 11 10 2 0 4 -4 4 -10z
m-53 -22 c-3 -8 -6 -5 -6 6 -1 11 2 17 5 13 3 -3 4 -12 1 -19z m-1067 -19 c0
-5 -4 -9 -10 -9 -5 0 -10 7 -10 16 0 8 5 12 10 9 6 -3 10 -10 10 -16z m758 -4
c-6 -14 -15 -25 -20 -25 -5 0 -6 6 -1 13 4 6 8 15 9 20 3 15 4 17 14 17 6 0 5
-10 -2 -25z m156 -30 c3 -8 1 -15 -4 -15 -6 0 -10 7 -10 15 0 8 2 15 4 15 2 0
6 -7 10 -15z m-793 -2 c5 -30 4 -63 -3 -63 -4 0 -8 5 -8 11 0 5 -4 8 -8 5 -5
-3 -9 0 -9 7 0 7 -4 20 -8 30 -5 13 -2 17 14 17 12 0 22 -3 22 -7z m1346 -65
c-3 -8 -6 -5 -6 6 -1 11 2 17 5 13 3 -3 4 -12 1 -19z m-1187 -59 c0 -6 -4 -7
-10 -4 -5 3 -10 11 -10 16 0 6 5 7 10 4 6 -3 10 -11 10 -16z m1362 -1 c-7 -7
-12 -8 -12 -2 0 6 3 14 7 17 3 4 9 5 12 2 2 -3 -1 -11 -7 -17z m-8 -33 c3 -8
1 -15 -4 -15 -6 0 -10 7 -10 15 0 8 2 15 4 15 2 0 6 -7 10 -15z m-1044 -39 c0
-2 -7 -7 -16 -10 -8 -3 -12 -2 -9 4 6 10 25 14 25 6z m1060 -532 c0 -2 -7 -4
-15 -4 -8 0 -15 4 -15 10 0 5 7 7 15 4 8 -4 15 -8 15 -10z m186 -369 c-10 -8
-15 -19 -11 -24 12 -20 -26 -24 -43 -5 -16 17 -16 17 0 5 15 -11 19 -11 25 5
8 21 35 45 43 37 3 -2 -3 -11 -14 -18z m54 -45 c0 -5 -4 -10 -10 -10 -5 0 -14
-9 -20 -20 -9 -16 -8 -19 7 -14 17 5 17 5 0 -6 -9 -6 -22 -8 -28 -5 -5 4 -16
1 -24 -5 -10 -8 -15 -9 -15 -2 0 6 6 16 13 22 60 50 77 59 77 40z m27 -24 c-3
-8 -1 -16 6 -19 6 -2 2 -6 -9 -9 -23 -6 -30 21 -10 34 16 11 19 10 13 -6z
m-400 -45 c6 25 43 12 42 -15 0 -11 -3 -16 -5 -9 -3 7 -12 9 -20 6 -8 -3 -21
1 -30 8 -10 8 -18 9 -22 3 -4 -6 -18 -7 -32 -3 l-25 7 26 1 c16 1 30 8 34 19
6 15 8 14 18 -8 8 -19 11 -21 14 -9z m-219 3 c21 -4 21 -6 7 -20 -11 -11 -38
-16 -94 -17 -81 -2 -103 5 -84 24 24 24 93 29 171 13z m453 -27 c3 -4 12 -7
19 -5 7 2 14 -7 16 -19 2 -13 -1 -23 -7 -23 -11 0 -79 63 -79 74 0 7 42 -15
51 -27z m-401 16 c0 -17 -18 -35 -29 -29 -8 5 -7 11 2 21 13 16 27 19 27 8z
m542 0 c-6 -2 -10 -9 -6 -14 3 -5 1 -9 -5 -9 -5 0 -12 4 -15 9 -6 9 10 19 29
19 6 0 4 -2 -3 -5z m-497 -33 c13 -6 15 -9 5 -9 -8 0 -22 4 -30 9 -18 12 -2
12 25 0z m105 -31 c0 -10 -4 -19 -10 -19 -5 0 -7 7 -4 15 4 8 1 15 -5 15 -6 0
-11 4 -11 10 0 5 7 7 15 4 8 -4 15 -15 15 -25z m1287 9 c-3 -8 -6 -5 -6 6 -1
11 2 17 5 13 3 -3 4 -12 1 -19z m-1588 -4 c22 -5 30 -11 27 -20 -3 -8 1 -14 9
-14 8 0 15 -4 15 -10 0 -21 -39 -9 -68 20 -33 32 -32 33 17 24z m131 -54 c0
-5 -2 -10 -4 -10 -3 0 -8 5 -11 10 -3 6 -1 10 4 10 6 0 11 -4 11 -10z m30 -10
c0 -5 -2 -10 -4 -10 -3 0 -8 5 -11 10 -3 6 -1 10 4 10 6 0 11 -4 11 -10z m285
-19 c7 -12 -12 -24 -25 -16 -11 7 -4 25 10 25 5 0 11 -4 15 -9z m-540 -50 c7
-12 -34 -6 -46 6 -7 7 -3 9 15 6 15 -3 28 -9 31 -12z m45 4 c-7 -9 -15 -13
-19 -10 -3 3 1 10 9 15 21 14 24 12 10 -5z m-416 -150 c-4 -8 -10 -12 -15 -9
-11 6 -2 24 11 24 5 0 7 -7 4 -15z m53 0 c0 -8 -4 -12 -9 -9 -5 3 -6 10 -3 15
9 13 12 11 12 -6z m-177 -322 c0 -22 -2 -25 -10 -13 -13 20 -13 40 0 40 6 0
10 -12 10 -27z m1730 -1528 c0 -8 -8 -15 -17 -14 -13 0 -14 2 -4 6 11 5 11 7
0 14 -11 7 -10 9 4 9 9 0 17 -7 17 -15z"/>
<path d="M1075 3580 c3 -5 8 -10 11 -10 2 0 4 5 4 10 0 6 -5 10 -11 10 -5 0
-7 -4 -4 -10z"/>
<path d="M287 3987 c-3 -8 0 -14 7 -14 7 0 13 6 13 14 0 7 -4 13 -8 13 -4 0
-9 -6 -12 -13z"/>
<path d="M928 3981 c4 -10 7 -11 10 -3 5 17 38 15 57 -4 9 -10 22 -13 33 -9 9
4 29 9 45 12 23 4 27 1 27 -21 0 -14 -8 -30 -17 -35 -10 -6 -13 -10 -8 -10 19
0 47 28 40 39 -6 9 1 10 24 5 20 -4 31 -3 31 4 0 6 -14 11 -31 11 -17 0 -28 4
-24 10 7 11 7 11 -52 15 -24 1 -43 -2 -43 -6 0 -5 -11 -4 -25 1 -37 14 -74 9
-67 -9z"/>
<path d="M1336 3957 c3 -10 9 -15 12 -12 3 3 0 11 -7 18 -10 9 -11 8 -5 -6z"/>
<path d="M1130 3930 c0 -5 8 -10 18 -10 14 0 15 -2 2 -10 -8 -5 -10 -10 -4
-10 18 0 24 13 13 27 -13 15 -29 17 -29 3z"/>
<path d="M1310 3926 c0 -2 7 -7 16 -10 8 -3 12 -2 9 4 -6 10 -25 14 -25 6z"/>
<path d="M1296 3875 c4 -8 8 -15 10 -15 2 0 4 7 4 15 0 8 -4 15 -10 15 -5 0
-7 -7 -4 -15z"/>
<path d="M1445 3880 c3 -5 11 -10 16 -10 6 0 7 5 4 10 -3 6 -11 10 -16 10 -6
0 -7 -4 -4 -10z"/>
<path d="M1407 3839 c-4 -16 -3 -18 9 -8 7 6 11 15 8 20 -8 13 -11 11 -17 -12z"/>
<path d="M1586 3843 c-6 -14 -5 -15 5 -6 7 7 10 15 7 18 -3 3 -9 -2 -12 -12z"/>
<path d="M1457 3843 c-10 -9 -9 -23 1 -23 5 0 9 7 9 15 0 17 -1 18 -10 8z"/>
<path d="M2050 3831 c0 -6 4 -13 10 -16 6 -3 7 1 4 9 -7 18 -14 21 -14 7z"/>
<path d="M1660 3800 c-8 -5 -12 -12 -9 -15 4 -3 12 1 19 10 14 17 11 19 -10 5z"/>
<path d="M1710 3765 c-11 -13 -10 -14 4 -9 9 3 16 10 16 15 0 13 -6 11 -20 -6z"/>
<path d="M65 3750 c-3 -5 -2 -10 4 -10 5 0 13 5 16 10 3 6 2 10 -4 10 -5 0
-13 -4 -16 -10z"/>
<path d="M1651 3752 c-1 -8 -6 -10 -13 -6 -10 5 -10 4 -1 -6 15 -16 28 -8 20
12 -4 11 -6 11 -6 0z"/>
<path d="M1688 3733 c7 -3 16 -2 19 1 4 3 -2 6 -13 5 -11 0 -14 -3 -6 -6z"/>
<path d="M1721 3724 c0 -11 3 -14 6 -6 3 7 2 16 -1 19 -3 4 -6 -2 -5 -13z"/>
<path d="M1930 3719 c0 -11 4 -18 10 -14 5 3 7 12 3 20 -7 21 -13 19 -13 -6z"/>
<path d="M160 3719 c0 -4 7 -9 15 -13 9 -3 15 0 15 8 0 7 -7 13 -15 13 -8 0
-15 -4 -15 -8z"/>
<path d="M7 3713 c-4 -3 -7 -13 -7 -22 1 -13 2 -13 11 2 6 9 15 14 21 11 7 -4
8 -2 4 4 -8 13 -19 15 -29 5z"/>
<path d="M50 3714 c0 -17 30 -39 56 -39 12 -1 20 3 17 8 -3 4 -12 6 -20 3 -8
-4 -23 4 -34 16 -10 13 -18 18 -19 12z"/>
<path d="M1771 3704 c0 -11 3 -14 6 -6 3 7 2 16 -1 19 -3 4 -6 -2 -5 -13z"/>
<path d="M1836 3707 c3 -10 9 -15 12 -12 3 3 0 11 -7 18 -10 9 -11 8 -5 -6z"/>
<path d="M216 3668 c3 -5 10 -6 15 -3 13 9 11 12 -6 12 -8 0 -12 -4 -9 -9z"/>
<path d="M710 3660 c0 -5 5 -10 11 -10 5 0 7 5 4 10 -3 6 -8 10 -11 10 -2 0
-4 -4 -4 -10z"/>
<path d="M180 3618 c0 -4 9 -22 20 -40 12 -20 20 -26 20 -17 0 16 -39 72 -40
57z"/>
<path d="M297 3549 c7 -7 15 -10 18 -7 3 3 -2 9 -12 12 -14 6 -15 5 -6 -5z"/>
<path d="M857 3493 c3 -7 11 -13 19 -13 8 0 14 6 14 13 0 7 -8 13 -19 13 -11
0 -17 -5 -14 -13z"/>
<path d="M65 3490 c-3 -5 -2 -10 4 -10 5 0 13 5 16 10 3 6 2 10 -4 10 -5 0
-13 -4 -16 -10z"/>
<path d="M460 3490 c-23 -7 -23 -8 -3 -9 12 -1 25 4 28 9 3 6 5 10 3 9 -2 -1
-14 -5 -28 -9z"/>
<path d="M495 3480 c-3 -5 3 -10 14 -10 12 0 21 5 21 10 0 6 -6 10 -14 10 -8
0 -18 -4 -21 -10z"/>
<path d="M980 3451 c0 -5 5 -13 10 -16 6 -3 10 -2 10 4 0 5 -4 13 -10 16 -5 3
-10 2 -10 -4z"/>
<path d="M1016 3453 c-12 -12 -6 -22 9 -17 11 5 13 2 9 -10 -5 -12 -2 -15 10
-10 9 3 16 9 16 13 0 10 -37 30 -44 24z"/>
<path d="M766 3438 c3 -5 10 -6 15 -3 13 9 11 12 -6 12 -8 0 -12 -4 -9 -9z"/>
<path d="M822 3423 c-10 -4 -8 -9 5 -20 16 -13 16 -14 1 -9 -10 3 -30 -1 -45
-9 -15 -8 -21 -15 -12 -15 8 0 20 5 27 12 9 9 12 9 12 0 0 -18 43 2 46 21 2
17 -14 27 -34 20z"/>
<path d="M983 3405 c0 -8 4 -15 9 -15 4 0 8 4 8 9 0 6 -4 12 -8 15 -5 3 -9 -1
-9 -9z"/>
<path d="M998 3386 c-23 -17 -23 -22 4 -29 24 -7 39 8 31 30 -6 16 -13 16 -35
-1z"/>
<path d="M2790 3389 c0 -5 5 -7 10 -4 6 3 10 8 10 11 0 2 -4 4 -10 4 -5 0 -10
-5 -10 -11z"/>
<path d="M1252 3358 c15 -22 52 -35 45 -15 -3 7 -10 11 -16 9 -6 -1 -14 5 -17
13 -4 8 -11 15 -16 15 -6 0 -4 -10 4 -22z"/>
<path d="M1766 3306 c3 -7 16 -19 30 -26 20 -11 27 -11 37 -1 10 11 9 13 -3 9
-8 -2 -23 4 -34 14 -23 21 -37 24 -30 4z"/>
<path d="M1470 3292 c0 -12 19 -26 26 -19 2 2 -2 10 -11 17 -9 8 -15 8 -15 2z"/>
<path d="M1130 3279 c0 -9 7 -22 15 -29 8 -7 15 -16 15 -21 0 -5 -7 -9 -15 -9
-8 0 -15 -4 -15 -9 0 -11 40 -9 59 4 11 6 11 10 -3 21 -12 8 -16 19 -11 33 4
15 2 21 -9 21 -10 0 -13 -6 -9 -17 5 -15 3 -14 -10 2 -14 17 -16 17 -17 4z"/>
<path d="M1510 3281 c0 -5 6 -12 13 -15 8 -4 7 -5 -3 -5 -35 3 -46 -3 -57 -27
-7 -15 -10 -31 -7 -35 6 -10 -19 -12 -29 -2 -4 3 -2 12 4 19 8 9 5 16 -12 24
-19 11 -21 10 -16 -4 4 -9 2 -16 -3 -16 -6 0 -10 4 -10 9 0 13 -36 20 -51 10
-12 -8 -6 -13 13 -11 3 1 12 -5 18 -13 7 -8 18 -15 25 -15 7 0 18 -6 24 -14 7
-8 22 -12 34 -9 18 4 19 3 7 -6 -12 -8 -12 -11 -1 -11 7 0 11 -6 7 -15 -6 -16
-2 -18 31 -9 13 4 20 10 17 15 -3 5 2 9 11 9 9 0 13 4 10 10 -11 18 -14 74 -4
80 11 7 1 40 -12 40 -5 0 -9 -4 -9 -9z m0 -35 c0 -2 -7 -9 -15 -16 -12 -10
-15 -10 -15 4 0 9 7 16 15 16 8 0 15 -2 15 -4z"/>
<path d="M1280 3270 c0 -5 5 -10 11 -10 5 0 7 5 4 10 -3 6 -8 10 -11 10 -2 0
-4 -4 -4 -10z"/>
<path d="M1671 3234 c-10 -13 -21 -20 -25 -17 -3 3 -6 -5 -6 -18 0 -18 3 -20
9 -10 6 9 18 12 37 7 17 -4 24 -3 16 2 -9 6 -7 13 7 29 20 21 20 21 0 26 -12
3 -25 -3 -38 -19z m29 -2 c0 -5 -7 -9 -15 -9 -8 0 -12 4 -9 9 3 4 9 8 15 8 5
0 9 -4 9 -8z"/>
<path d="M1783 3253 c4 -3 2 -12 -4 -20 -9 -10 -8 -13 2 -13 11 0 11 -2 -1 -9
-8 -6 -18 -7 -22 -5 -4 3 -8 1 -8 -4 0 -5 12 -9 28 -8 15 0 37 -3 49 -7 18 -7
21 -5 16 12 -3 11 -12 26 -21 33 -14 12 -14 10 -3 -11 11 -19 11 -23 -1 -19
-7 3 -14 17 -16 31 -2 15 -8 27 -14 27 -6 0 -8 -3 -5 -7z"/>
<path d="M1588 3168 c3 -14 -2 -18 -19 -18 -20 -1 -21 -2 -7 -10 9 -6 26 -29
37 -53 19 -39 24 -43 52 -39 29 4 29 5 12 24 -17 19 -17 20 0 33 24 17 16 53
-16 70 -37 19 -65 16 -59 -7z"/>
<path d="M1765 3160 c-3 -5 -3 -10 2 -10 4 0 0 -5 -10 -11 -14 -8 -16 -14 -6
-25 8 -10 9 -14 0 -14 -9 0 -9 -5 -1 -20 8 -16 17 -19 33 -14 12 4 27 7 34 7
8 0 8 5 0 19 -7 10 -17 18 -24 18 -19 0 -27 21 -12 31 11 7 11 9 1 9 -7 0 -10
5 -7 10 3 6 4 10 1 10 -3 0 -8 -4 -11 -10z"/>
<path d="M1890 3096 c0 -2 7 -6 15 -10 8 -3 15 -1 15 4 0 6 -7 10 -15 10 -8 0
-15 -2 -15 -4z"/>
<path d="M1684 3071 c11 -12 26 -19 33 -17 7 3 17 -3 22 -12 9 -15 10 -15 11
4 0 14 -8 23 -22 27 -13 2 -32 8 -43 12 -20 8 -20 8 -1 -14z"/>
<path d="M1392 3036 c7 -8 15 -12 17 -11 5 6 -10 25 -20 25 -5 0 -4 -6 3 -14z"/>
<path d="M1862 3018 c5 -13 38 -20 38 -8 0 4 -9 10 -21 13 -12 3 -19 1 -17 -5z"/>
<path d="M1970 3005 c0 -9 6 -12 15 -9 8 4 15 10 15 15 0 5 -7 9 -15 9 -8 0
-15 -7 -15 -15z"/>
<path d="M2255 3000 c3 -5 8 -10 11 -10 2 0 4 5 4 10 0 6 -5 10 -11 10 -5 0
-7 -4 -4 -10z"/>
<path d="M1790 2980 c0 -5 5 -10 10 -10 6 0 10 5 10 10 0 6 -4 10 -10 10 -5 0
-10 -4 -10 -10z"/>
<path d="M2327 2933 c-12 -11 -8 -23 7 -23 8 0 16 -7 20 -15 3 -8 12 -15 21
-15 8 0 15 -4 15 -8 0 -4 9 -8 20 -8 11 0 20 4 20 8 0 4 -8 8 -18 8 -9 0 -28
14 -42 30 -26 31 -32 35 -43 23z"/>
<path d="M2485 2823 c1 -10 -5 -30 -13 -45 -18 -31 -9 -49 29 -55 16 -2 19 1
14 17 -3 11 -2 20 3 20 11 0 3 50 -11 68 -14 17 -26 15 -22 -5z"/>
<path d="M2451 2815 c0 -5 3 -16 8 -23 7 -11 9 -10 14 3 4 9 3 14 -2 10 -5 -3
-12 1 -14 7 -3 7 -6 9 -6 3z"/>
<path d="M3276 2751 c-3 -5 1 -14 9 -21 12 -10 15 -10 15 3 0 19 -16 31 -24
18z"/>
<path d="M2365 2720 c4 -6 11 -8 16 -5 14 9 11 15 -7 15 -8 0 -12 -5 -9 -10z"/>
<path d="M2176 2698 c3 -4 14 -8 25 -8 11 0 18 4 14 9 -3 6 -14 9 -25 8 -10
-1 -16 -5 -14 -9z"/>
<path d="M2590 2690 c-6 -11 -7 -20 -2 -20 6 0 12 9 15 20 3 11 3 20 1 20 -2
0 -8 -9 -14 -20z"/>
<path d="M2470 2690 c8 -5 12 -10 8 -11 -5 -1 -12 -3 -18 -4 -5 -1 -13 -3 -17
-4 -5 -1 0 -6 11 -12 14 -9 20 -8 27 2 14 22 10 39 -8 39 -15 0 -16 -2 -3 -10z"/>
<path d="M1920 2670 c0 -5 5 -10 10 -10 6 0 10 5 10 10 0 6 -4 10 -10 10 -5 0
-10 -4 -10 -10z"/>
<path d="M2174 2659 c-3 -5 6 -19 21 -31 14 -11 24 -27 21 -34 -3 -9 2 -14 14
-14 11 0 20 -6 20 -14 0 -7 11 -16 24 -18 29 -6 25 18 -5 27 -10 4 -19 11 -19
16 0 6 -4 7 -10 4 -5 -3 -10 1 -10 9 0 20 -48 67 -56 55z"/>
<path d="M2205 2660 c3 -5 8 -10 11 -10 2 0 4 5 4 10 0 6 -5 10 -11 10 -5 0
-7 -4 -4 -10z"/>
<path d="M2375 2650 c3 -5 18 -10 33 -9 24 0 25 1 7 9 -28 12 -47 12 -40 0z"/>
<path d="M2580 2656 c0 -2 7 -7 16 -10 8 -3 12 -2 9 4 -6 10 -25 14 -25 6z"/>
<path d="M2098 2620 c17 -17 32 -34 32 -39 0 -5 8 -12 18 -15 26 -9 24 -44 -3
-39 -18 4 -19 3 -2 -7 27 -18 40 -8 41 34 1 44 -12 59 -74 80 l-45 15 33 -29z"/>
<path d="M3426 2635 c4 -8 8 -15 10 -15 2 0 4 7 4 15 0 8 -4 15 -10 15 -5 0
-7 -7 -4 -15z"/>
<path d="M1737 2604 c6 -15 31 -26 37 -16 2 4 -6 12 -19 18 -18 9 -22 9 -18
-2z"/>
<path d="M2634 2608 c4 -10 8 -26 11 -35 4 -12 8 -14 17 -5 9 9 7 17 -10 35
-18 17 -22 18 -18 5z"/>
<path d="M1920 2555 c7 -9 15 -13 17 -11 7 7 -7 26 -19 26 -6 0 -6 -6 2 -15z"/>
<path d="M2020 2554 c0 -9 9 -18 20 -21 19 -5 20 -6 3 -19 -10 -7 -13 -14 -7
-14 20 0 33 22 24 40 -13 24 -40 33 -40 14z"/>
<path d="M1946 2531 c-6 -9 26 -21 58 -21 20 0 20 0 0 15 -22 16 -50 19 -58 6z"/>
<path d="M2590 2525 c7 -8 16 -12 21 -9 13 8 1 24 -18 24 -13 0 -13 -3 -3 -15z"/>
<path d="M1641 2521 c-8 -5 -11 -13 -7 -19 7 -12 44 -4 53 12 3 6 3 8 -2 4 -4
-4 -13 -4 -19 2 -7 5 -18 5 -25 1z"/>
<path d="M1740 2511 c0 -5 7 -12 16 -15 14 -5 15 -4 4 9 -14 17 -20 19 -20 6z"/>
<path d="M2470 2507 c0 -19 16 -31 24 -18 3 5 -1 14 -9 21 -12 10 -15 10 -15
-3z"/>
<path d="M1705 2500 c-3 -5 1 -10 9 -10 9 0 16 5 16 10 0 6 -4 10 -9 10 -6 0
-13 -4 -16 -10z"/>
<path d="M2373 2486 c17 -19 25 -22 35 -13 11 9 11 13 -4 24 -10 7 -26 13 -35
13 -15 0 -15 -3 4 -24z"/>
<path d="M2180 2496 c0 -2 7 -6 15 -10 8 -3 15 -1 15 4 0 6 -7 10 -15 10 -8 0
-15 -2 -15 -4z"/>
<path d="M1598 2423 c7 -3 16 -2 19 1 4 3 -2 6 -13 5 -11 0 -14 -3 -6 -6z"/>
<path d="M1705 2415 c52 -12 70 -10 45 5 -8 6 -33 9 -55 9 l-40 -1 50 -13z"/>
<path d="M1850 2405 c-7 -8 -9 -15 -6 -15 4 0 14 7 22 15 9 8 11 15 6 15 -5 0
-15 -7 -22 -15z"/>
<path d="M1900 2410 c-13 -8 -12 -10 3 -10 9 0 17 5 17 10 0 12 -1 12 -20 0z"/>
<path d="M3691 2391 c-10 -6 -10 -10 -1 -16 13 -8 24 -1 19 14 -3 6 -10 7 -18
2z"/>
<path d="M1775 2380 c-8 -13 25 -13 45 0 12 8 9 10 -12 10 -15 0 -30 -4 -33
-10z"/>
<path d="M2555 2370 c-3 -5 -1 -10 4 -10 6 0 11 5 11 10 0 6 -2 10 -4 10 -3 0
-8 -4 -11 -10z"/>
<path d="M3903 2340 c-33 -13 -28 -20 13 -20 23 0 34 4 32 12 -6 16 -19 18
-45 8z"/>
<path d="M1855 2321 c-3 -6 4 -8 16 -6 30 6 37 15 11 15 -11 0 -23 -4 -27 -9z"/>
<path d="M1796 2311 c-19 -7 -18 -8 4 -14 13 -3 26 -4 29 -2 2 3 -2 5 -10 6
-8 0 -6 4 6 9 25 11 -2 12 -29 1z"/>
<path d="M1910 2247 c0 -5 -4 -5 -10 -2 -5 3 -10 1 -10 -4 0 -6 -5 -11 -11
-11 -5 0 -7 5 -3 11 5 8 1 8 -13 0 -11 -6 -23 -7 -27 -4 -10 10 -7 -10 4 -27
8 -12 10 -12 10 -1 0 11 15 13 70 9 39 -3 70 -2 70 3 0 4 9 11 20 14 11 4 18
11 14 16 -7 11 -114 7 -114 -4z"/>
<path d="M2048 2243 c7 -3 16 -2 19 1 4 3 -2 6 -13 5 -11 0 -14 -3 -6 -6z"/>
<path d="M1670 1989 c0 -5 5 -7 10 -4 6 3 10 8 10 11 0 2 -4 4 -10 4 -5 0 -10
-5 -10 -11z"/>
<path d="M1640 1960 c-13 -8 -12 -10 3 -10 9 0 17 5 17 10 0 12 -1 12 -20 0z"/>
<path d="M1503 1883 c-18 -7 -16 -23 2 -23 8 0 15 7 15 15 0 8 -1 15 -2 14 -2
0 -9 -3 -15 -6z"/>
<path d="M1495 1830 c-10 -11 -16 -22 -13 -25 3 -3 13 6 22 20 20 30 16 32 -9
5z"/>
<path d="M1421 1704 c0 -11 3 -14 6 -6 3 7 2 16 -1 19 -3 4 -6 -2 -5 -13z"/>
<path d="M1410 1661 c0 -6 5 -13 10 -16 6 -3 10 1 10 9 0 9 -4 16 -10 16 -5 0
-10 -4 -10 -9z"/>
<path d="M1485 1361 c-3 -5 -1 -12 5 -16 5 -3 10 1 10 9 0 18 -6 21 -15 7z"/>
<path d="M1450 1315 c7 -9 15 -13 17 -11 7 7 -7 26 -19 26 -6 0 -6 -6 2 -15z"/>
<path d="M1500 1216 c0 -8 4 -17 9 -20 5 -4 7 3 4 14 -6 23 -13 26 -13 6z"/>
<path d="M1551 1185 c0 -5 6 -19 14 -29 8 -11 15 -15 15 -10 0 6 -7 19 -15 30
-8 10 -14 15 -14 9z"/>
<path d="M1500 1171 c0 -5 5 -13 10 -16 6 -3 10 -2 10 4 0 5 -4 13 -10 16 -5
3 -10 2 -10 -4z"/>
<path d="M1535 1110 c16 -16 31 -28 33 -25 6 6 -40 55 -52 55 -6 0 3 -13 19
-30z"/>
<path d="M1586 1072 c-3 -5 1 -17 8 -27 7 -10 15 -14 19 -9 3 5 -1 17 -8 27
-7 10 -16 14 -19 9z"/>
<path d="M1630 1013 c0 -13 49 -69 50 -57 0 6 -7 17 -15 24 -8 7 -15 19 -15
26 0 8 -4 14 -10 14 -5 0 -10 -3 -10 -7z"/>
<path d="M1475 820 c3 -5 11 -10 16 -10 6 0 7 5 4 10 -3 6 -11 10 -16 10 -6 0
-7 -4 -4 -10z"/>
<path d="M1550 790 c20 -13 33 -13 25 0 -3 6 -14 10 -23 10 -15 0 -15 -2 -2
-10z"/>
<path d="M1495 760 c10 -11 23 -20 28 -20 6 0 2 9 -8 20 -10 11 -23 20 -28 20
-6 0 -2 -9 8 -20z"/>
<path d="M1384 755 c28 -15 46 -13 46 7 0 7 -5 6 -14 -1 -10 -8 -16 -9 -21 -1
-3 5 -14 10 -23 10 -11 0 -7 -6 12 -15z"/>
<path d="M1575 760 c-3 -5 1 -13 10 -16 22 -9 29 1 11 15 -10 8 -16 9 -21 1z"/>
<path d="M1650 762 c0 -6 6 -12 13 -15 8 -3 6 -9 -8 -20 -19 -15 -19 -16 14
-34 19 -10 42 -26 53 -35 21 -21 28 -22 28 -7 0 13 -25 39 -38 39 -5 0 -15 7
-22 15 -7 8 -17 12 -23 8 -6 -4 -7 -1 -2 6 4 7 16 11 26 8 26 -7 24 -2 -11 23
-16 12 -30 17 -30 12z"/>
<path d="M1437 743 c-11 -11 -8 -25 4 -17 7 4 10 1 7 -7 -3 -8 -11 -13 -17
-11 -7 1 -10 -2 -6 -7 3 -6 12 -7 21 -4 16 6 57 -30 47 -41 -4 -3 1 -6 10 -6
10 0 17 -4 17 -10 0 -5 7 -6 17 -3 12 5 14 3 8 -7 -5 -8 -4 -11 2 -7 6 4 50
-14 99 -38 49 -25 82 -45 74 -45 -8 0 -22 4 -30 10 -9 6 -17 5 -21 -2 -4 -7
-16 -1 -30 16 -13 15 -29 24 -37 21 -7 -2 -10 0 -7 5 6 10 4 11 -42 15 -16 1
-37 5 -47 10 -15 6 -17 5 -11 -5 6 -9 4 -12 -6 -8 -8 3 -23 9 -34 13 -18 7
-18 6 2 -9 12 -9 32 -15 44 -13 13 2 31 -3 41 -12 9 -9 42 -24 72 -33 79 -25
227 -93 219 -102 -4 -4 0 -4 9 -1 9 4 26 2 37 -5 12 -6 21 -8 21 -6 0 3 -12
12 -27 20 -18 10 -22 15 -12 16 9 0 28 -12 42 -26 19 -19 32 -24 49 -19 16 4
19 3 10 -3 -11 -7 -10 -10 3 -16 9 -3 25 -6 35 -6 10 0 34 -9 52 -19 18 -11
62 -27 98 -36 36 -8 83 -23 105 -31 70 -28 108 -42 180 -64 39 -12 79 -25 90
-29 50 -20 85 -29 79 -20 -7 11 -14 13 91 -16 50 -14 135 -37 190 -51 55 -14
105 -30 110 -34 6 -4 30 -11 55 -15 25 -4 104 -23 175 -43 115 -31 147 -36
275 -39 137 -4 175 0 100 11 -19 2 -46 7 -60 10 -14 3 -74 10 -135 16 -60 7
-121 13 -135 15 -55 6 -213 49 -370 100 -91 29 -199 63 -240 75 -41 12 -81 27
-88 33 -7 5 -25 11 -40 12 -15 1 -48 12 -72 24 -41 19 -34 23 15 7 11 -4 -11
9 -48 29 -38 20 -74 34 -80 32 -7 -3 5 -12 26 -21 43 -19 46 -24 12 -22 -14 0
-25 4 -25 9 0 4 -7 7 -16 7 -12 0 -15 6 -10 24 7 27 -18 45 -28 20 -3 -8 0
-14 6 -14 9 0 9 -3 1 -11 -15 -15 -53 -2 -53 18 0 9 -6 13 -14 10 -7 -3 -17
-2 -22 3 -5 4 -26 13 -46 19 -20 7 -42 19 -48 27 -7 7 -19 14 -27 14 -8 0 -60
26 -116 59 -142 81 -206 113 -217 106 -6 -4 -10 -2 -10 3 0 5 -6 9 -13 9 -7 0
-27 9 -43 20 -89 60 -108 72 -113 67 -3 -3 1 -11 10 -17 8 -7 31 -25 50 -40
l34 -28 -55 29 c-30 16 -82 39 -115 53 -33 13 -63 27 -66 32 -3 4 -8 4 -12 0z
m93 -64 c0 -6 -4 -7 -10 -4 -5 3 -10 11 -10 16 0 6 5 7 10 4 6 -3 10 -11 10
-16z m49 -13 c10 -12 8 -13 -8 -9 -12 3 -21 9 -21 14 0 14 16 11 29 -5z m51
-46 c0 -5 -2 -10 -4 -10 -3 0 -8 5 -11 10 -3 6 -1 10 4 10 6 0 11 -4 11 -10z
m200 -47 c0 -7 -39 17 -46 28 -3 6 5 3 20 -6 14 -10 26 -19 26 -22z m-34 -8
c16 -14 43 -33 61 -42 53 -25 31 -26 -26 -2 -28 13 -51 29 -51 36 0 8 -4 11
-10 8 -5 -3 -10 -1 -10 5 0 6 -5 8 -12 4 -7 -4 -8 -3 -4 4 11 18 22 15 52 -13z
m-51 -45 c3 -6 -1 -7 -9 -4 -18 7 -21 14 -7 14 6 0 13 -4 16 -10z m45 -20 c8
-5 11 -10 5 -10 -5 0 -17 5 -25 10 -8 5 -10 10 -5 10 6 0 17 -5 25 -10z m275
-78 c-3 -3 -11 0 -18 7 -9 10 -8 11 6 5 10 -3 15 -9 12 -12z m1348 -409 c-7
-2 -19 -2 -25 0 -7 3 -2 5 12 5 14 0 19 -2 13 -5z"/>
<path d="M1365 730 c3 -5 8 -10 11 -10 2 0 4 5 4 10 0 6 -5 10 -11 10 -5 0 -7
-4 -4 -10z"/>
<path d="M1620 729 c0 -5 5 -7 10 -4 6 3 10 8 10 11 0 2 -4 4 -10 4 -5 0 -10
-5 -10 -11z"/>
<path d="M2050 651 c0 -5 7 -11 15 -15 8 -3 15 -1 15 3 0 5 -7 11 -15 15 -8 3
-15 1 -15 -3z"/>
<path d="M1391 647 c2 -1 13 -9 24 -17 19 -14 19 -14 6 3 -7 9 -18 17 -24 17
-6 0 -8 -1 -6 -3z"/>
<path d="M2100 610 c8 -5 20 -10 25 -10 6 0 3 5 -5 10 -8 5 -19 10 -25 10 -5
0 -3 -5 5 -10z"/>
<path d="M2145 460 c3 -5 8 -10 11 -10 2 0 4 5 4 10 0 6 -5 10 -11 10 -5 0 -7
-4 -4 -10z"/>
<path d="M3136 281 c-3 -5 1 -11 9 -15 8 -3 15 -1 15 4 0 13 -18 22 -24 11z"/>
<path d="M2595 150 c3 -5 10 -10 16 -10 5 0 9 5 9 10 0 6 -7 10 -16 10 -8 0
-12 -4 -9 -10z"/>
<path d="M1963 20 c-38 -15 -26 -20 50 -20 72 1 72 1 38 15 -38 17 -56 18 -88
5z"/>
<path d="M2988 3 c7 -3 16 -2 19 1 4 3 -2 6 -13 5 -11 0 -14 -3 -6 -6z"/>
</g>
</svg>
